<svg id="Layer_1" data-name="Layer 1" xmlns="http://www.w3.org/2000/svg" viewBox="0 0 100 40"><defs><style>.cls-1{fill:#fff;}</style></defs><title>logo</title><path class="cls-1" d="M11.353,39.981a9.952,9.952,0,0,1-8.115-4.094A16.566,16.566,0,0,1,.016,25.3,31.1,31.1,0,0,1,2.231,13.378,21.847,21.847,0,0,1,8.514,4.657a13.6,13.6,0,0,1,8.779-3.378,12.294,12.294,0,0,1,7.581,2.16,6.266,6.266,0,0,1,2.869,5.118A7.654,7.654,0,0,1,26,13.624a11.441,11.441,0,0,1-3.836-.747,8.274,8.274,0,0,1-3.121-1.822L20.051,5.64a6.11,6.11,0,0,0-3.322-.809q-3.222,0-5.7,5.6a34.088,34.088,0,0,0-2.517,13.8q0,5.415,1.812,7.871a5.186,5.186,0,0,0,4.3,2.436q4.168,0,8.054-3.972l2.165,1.986a17.4,17.4,0,0,1-2.1,2.354,21.215,21.215,0,0,1-3.02,2.5,16.8,16.8,0,0,1-3.745,1.791A13.638,13.638,0,0,1,11.353,39.981Z" transform="translate(0)"/><path class="cls-1" d="M27.27,30.052q0-6.7,4.027-10.584a12.6,12.6,0,0,1,9.061-3.89,8.1,8.1,0,0,1,5.114,1.556,4.993,4.993,0,0,1,2.014,4.156A7.25,7.25,0,0,1,46.2,25.661a9.1,9.1,0,0,1-3.141,2.733A23.62,23.62,0,0,1,36.2,30.708l-1.269.164q0.373,5.036,4.027,5.036a6.545,6.545,0,0,0,2.688-.645,10.238,10.238,0,0,0,2.215-1.29l0.8-.645,1.269,1.72A8.609,8.609,0,0,1,44.234,36.6a23.121,23.121,0,0,1-2.406,1.6,13.465,13.465,0,0,1-6.7,1.72,7,7,0,0,1-5.749-2.631A11.393,11.393,0,0,1,27.27,30.052Zm11.81-4.094a6.941,6.941,0,0,0,1.581-4.719q0-2.9-1.691-2.9-2.014,0-3.081,3.46a21.706,21.706,0,0,0-1.077,6.459A7.1,7.1,0,0,0,39.079,25.958Z" transform="translate(0)"/><path class="cls-1" d="M73.512,36.071q-4.48,3.91-7.883,3.91a3.59,3.59,0,0,1-3.916-3.249v-0.18a12.082,12.082,0,0,1-3.534,2.518,8.318,8.318,0,0,1-3.423.911,5.369,5.369,0,0,1-4.319-2.252q-1.792-2.252-1.792-6.971,0-7.073,2.95-11.126t6.665-4.094a10.938,10.938,0,0,1,6.192,1.72A78.655,78.655,0,0,0,66.081,3.644L65.85,1.392A23.232,23.232,0,0,1,73.612,0a4.952,4.952,0,0,1,.423,2.047q0,3.91-2.316,15.9T69.394,34.249q0,1.29.584,1.29a7.643,7.643,0,0,0,2.014-1.024l0.513-.368ZM60.806,18.793q-1.842,0-3.192,3.7a21.324,21.324,0,0,0-1.349,7.319,13.07,13.07,0,0,0,.5,4.637,1.6,1.6,0,0,0,1.5,1.024,5.251,5.251,0,0,0,3.423-1.443q0.181-2.19,2.376-14.33A6.959,6.959,0,0,0,60.806,18.793Z" transform="translate(0)"/><path class="cls-1" d="M82.371,39.981a6.859,6.859,0,0,1-5.7-2.6,11.4,11.4,0,0,1-2.014-7.267A16.867,16.867,0,0,1,77.8,19.878a10.151,10.151,0,0,1,8.668-4.289l1.852,0.133a4.162,4.162,0,0,1,2.014-.481q4.158,0,4.168,7.984a26.573,26.573,0,0,0,4.38-.583l0.805-.215L100,24.474a24.154,24.154,0,0,1-4.692,1.341L94.3,26.03a23.072,23.072,0,0,1-4.027,9.785A9.359,9.359,0,0,1,82.371,39.981Zm2.849-4.606q2.215,0,4.027-2.9A19.477,19.477,0,0,0,91.7,26.337q-5.668,0-5.668-4.258a7.65,7.65,0,0,1,.685-3.214l0.262-.532a1.161,1.161,0,0,0-.524-0.1,0.854,0.854,0,0,0-.473.1q-1.319.86-2.477,4.023a20.938,20.938,0,0,0-1.158,7.237q0,5.783,2.859,5.783h0.01Z" transform="translate(0)"/></svg>