<svg id="Layer_4" data-name="Layer 4" xmlns="http://www.w3.org/2000/svg" viewBox="0 0 135.04 101.99"><defs><style>.cls-1{fill:#80c5d7;}.cls-2{fill:#6faf8d;}.cls-3{fill:#ffe2bc;}.cls-4{fill:#3f8c60;}.cls-5{fill:#fce5ca;}.cls-6{fill:#ffdeb6;}.cls-7{fill:#76939e;}</style></defs><title>loan-options-student-loan</title><path id="_Path_" data-name="&lt;Path&gt;" class="cls-1" d="M121.93,62c0.08-1,.15-2,0.15-3A35.75,35.75,0,0,0,55.24,41.28,22.77,22.77,0,0,0,29.32,60.35H21.48A21.36,21.36,0,0,0,.13,81.72h0a21.36,21.36,0,0,0,21.35,21.37h92.34a21.36,21.36,0,0,0,21.35-21.37h0A21.37,21.37,0,0,0,121.93,62Z" transform="translate(-0.13 -1.1)"/><path class="cls-2" d="M106.23,89.6a6.85,6.85,0,0,0-2.68-3.87l-3.44-2.46L91.26,76.4l-3.68-3.09H49.12L45.44,76.4l-8.85,6.87-3.44,2.46a6.85,6.85,0,0,0-2.68,3.87L27.08,103h82.55Z" transform="translate(-0.13 -1.1)"/><path class="cls-3" d="M49.12,49.51S46,52.65,44.47,45.16c-1.62-8-1.57-12.36,1.34-13.27a1.77,1.77,0,0,1,2.4.91Z" transform="translate(-0.13 -1.1)"/><path class="cls-4" d="M55.67,65l-2.6,2.63-4,4.11a1.32,1.32,0,0,0-.38,1,1.35,1.35,0,0,0,.52,1c2.44,1.9,8.38,6.13,14.24,7.18,0,0-11.82.69-18.39-3a3.3,3.3,0,0,0-3.54,0L35.2,82.4,34.11,85l1.06-.76A1.52,1.52,0,0,1,36.35,84a1.45,1.45,0,0,1,1,.69c1.77,3.08,7,10,18.18,10C69.93,94.7,85.66,80.19,90.9,79c3.55-.79,8,3.33,8,3.33l-0.31-.71a5.7,5.7,0,0,0-2.09-2.47l-4.13-2.74a6.24,6.24,0,0,0-4.34-1V75.09a5.45,5.45,0,0,0-1.36-3.57l-3.42-3.93-2.9-2.25Z" transform="translate(-0.13 -1.1)"/><path class="cls-5" d="M55.5,59.42v2.06c0,3.79,1.33,12.52,12.85,12.36,10.35-.14,12.24-8.57,12.24-12.36V58.88Z" transform="translate(-0.13 -1.1)"/><path class="cls-6" d="M55.67,65A16.39,16.39,0,0,0,67.8,70.42c4.92,0,9.27-2.31,12.72-6.18l0.08-4L55.5,60.8Z" transform="translate(-0.13 -1.1)"/><path class="cls-3" d="M67.8,67.58C79.25,67.58,88,56.26,88,37.49,88,14.09,80.77,8.66,67.8,8.66S47.55,14.09,47.55,37.49C47.55,56.26,56.34,67.58,67.8,67.58Z" transform="translate(-0.13 -1.1)"/><path class="cls-3" d="M86.77,49.51s3.13,3.14,4.65-4.35C93,37.15,93,32.8,90.07,31.88a1.77,1.77,0,0,0-2.4.91Z" transform="translate(-0.13 -1.1)"/><path class="cls-5" d="M68,8.66V67.57c11.33-.17,20-11.45,20-30.08C88,14.24,80.86,8.73,68,8.66Z" transform="translate(-0.13 -1.1)"/><path class="cls-7" d="M52.59,6.82C64.89-1.88,74.9,8.54,91.51,1.1c0,0-5.91,6.87-11.61,7.55,0,0,7.85,3.55,17.55-7.55a21.27,21.27,0,0,1-12.85,16s5.18,0.35,11.22-5.95c0,0-2,15.22-27.46,15.22C55,26.39,51.74,19,51.74,19S48.47,23.3,49.2,39.89H47.26s-7.52-13.39,0-22.43C47.24,13.47,47.74,10.26,52.59,6.82Z" transform="translate(-0.13 -1.1)"/><path class="cls-7" d="M85.29,19s3.27,4.35,2.55,20.94h1.94s7.52-13.39,0-22.43Z" transform="translate(-0.13 -1.1)"/></svg>