<svg id="Layer_5" data-name="Layer 5" xmlns="http://www.w3.org/2000/svg" viewBox="0 0 127 100.77"><defs><style>.cls-1,.cls-2{fill:#3b4c1e;}.cls-1,.cls-5,.cls-7{fill-rule:evenodd;}.cls-3{fill:#455923;}.cls-4{fill:#97be5d;}.cls-5{fill:#88ac55;}.cls-6,.cls-7{fill:#80a04f;}</style></defs><title>vector-card-5</title><polygon class="cls-1" points="13.84 100.77 16.9 100.77 18.43 95.76 12.3 95.76 13.84 100.77"/><polygon class="cls-1" points="110.1 100.77 113.17 100.77 114.7 95.76 108.57 95.76 110.1 100.77"/><path class="cls-1" d="M53.59,5.09h0.75A7.89,7.89,0,0,0,53.94,12l-1.4,0C52.07,9.56,52.12,7.05,53.59,5.09Z" transform="translate(-4.64 -1.77)"/><rect class="cls-2" x="46.3" y="8.6" width="4.42" height="2.48"/><path class="cls-1" d="M82.59,5.09H81.83A7.89,7.89,0,0,1,82.24,12l1.4,0C84.11,9.56,84.06,7.05,82.59,5.09Z" transform="translate(-4.64 -1.77)"/><rect class="cls-2" x="76.17" y="8.6" width="4.42" height="2.48"/><rect class="cls-3" x="17.64" y="8.06" width="10.05" height="2.72" rx="1.36" ry="1.36"/><rect class="cls-3" x="99.31" y="8.06" width="10.05" height="2.72" rx="1.36" ry="1.36"/><rect class="cls-4" y="9.42" width="127" height="89.04" rx="10.35" ry="10.35"/><path class="cls-5" d="M45.11,72.33A145.3,145.3,0,0,1,4.64,66.74V89.88A10.38,10.38,0,0,0,15,100.23h2.78l0.71,2.31h3.06l0.71-2.31H114l0.71,2.31h3.06l0.71-2.31h2.78a10.38,10.38,0,0,0,10.35-10.35V38.93C115.27,58.79,82.67,72.33,45.11,72.33Z" transform="translate(-4.64 -1.77)"/><path class="cls-6" d="M121.29,96.19h-1.13a0.15,0.15,0,0,1,0-.3h1.48a0.15,0.15,0,0,1,.16.14,0.15,0.15,0,0,1-.14.16h-0.36Zm-2.62,0h-1.49a0.15,0.15,0,0,1,0-.3h1.49A0.15,0.15,0,0,1,118.67,96.19Zm-3,0H114.2a0.15,0.15,0,1,1,0-.3h1.49A0.15,0.15,0,0,1,115.69,96.19Zm-3,0h-1.49a0.15,0.15,0,1,1,0-.3h1.49A0.15,0.15,0,0,1,112.71,96.19Zm-3,0h-1.49a0.15,0.15,0,1,1,0-.3h1.49A0.15,0.15,0,0,1,109.73,96.19Zm-3,0h-1.49a0.15,0.15,0,0,1,0-.3h1.49A0.15,0.15,0,1,1,106.75,96.19Zm-3,0h-1.49a0.15,0.15,0,0,1,0-.3h1.49A0.15,0.15,0,1,1,103.77,96.19Zm-3,0H99.3a0.15,0.15,0,0,1,0-.3h1.49A0.15,0.15,0,0,1,100.79,96.19Zm-3,0H96.33a0.15,0.15,0,1,1,0-.3h1.49A0.15,0.15,0,0,1,97.81,96.19Zm-3,0H93.35a0.15,0.15,0,0,1,0-.3h1.49A0.15,0.15,0,0,1,94.84,96.19Zm-3,0H90.37a0.15,0.15,0,1,1,0-.3h1.49A0.15,0.15,0,0,1,91.86,96.19Zm-3,0H87.39a0.15,0.15,0,0,1,0-.3h1.49A0.15,0.15,0,1,1,88.88,96.19Zm-3,0H84.41a0.15,0.15,0,0,1,0-.3H85.9A0.15,0.15,0,1,1,85.9,96.19Zm-3,0H81.43a0.15,0.15,0,0,1,0-.3h1.49A0.15,0.15,0,0,1,82.92,96.19Zm-3,0H78.45a0.15,0.15,0,1,1,0-.3h1.49A0.15,0.15,0,0,1,79.94,96.19Zm-3,0H75.47a0.15,0.15,0,0,1,0-.3H77A0.15,0.15,0,0,1,77,96.19Zm-3,0H72.49a0.15,0.15,0,0,1,0-.3H74A0.15,0.15,0,1,1,74,96.19Zm-3,0H69.51a0.15,0.15,0,0,1,0-.3H71A0.15,0.15,0,1,1,71,96.19Zm-3,0H66.53a0.15,0.15,0,0,1,0-.3H68A0.15,0.15,0,1,1,68,96.19Zm-3,0H63.55a0.15,0.15,0,0,1,0-.3H65A0.15,0.15,0,0,1,65,96.19Zm-3,0H60.58a0.15,0.15,0,1,1,0-.3h1.49A0.15,0.15,0,0,1,62.07,96.19Zm-3,0H57.6a0.15,0.15,0,0,1,0-.3h1.49A0.15,0.15,0,0,1,59.09,96.19Zm-3,0H54.62a0.15,0.15,0,0,1,0-.3h1.49A0.15,0.15,0,1,1,56.11,96.19Zm-3,0H51.64a0.15,0.15,0,0,1,0-.3h1.49A0.15,0.15,0,0,1,53.13,96.19Zm-3,0H48.66a0.15,0.15,0,1,1,0-.3h1.49A0.15,0.15,0,1,1,50.15,96.19Zm-3,0H45.68a0.15,0.15,0,0,1,0-.3h1.49A0.15,0.15,0,0,1,47.17,96.19Zm-3,0H42.7a0.15,0.15,0,1,1,0-.3h1.49A0.15,0.15,0,0,1,44.19,96.19Zm-3,0H39.72a0.15,0.15,0,0,1,0-.3h1.49A0.15,0.15,0,0,1,41.21,96.19Zm-3,0H36.74a0.15,0.15,0,0,1,0-.3h1.49A0.15,0.15,0,1,1,38.23,96.19Zm-3,0H33.76a0.15,0.15,0,0,1,0-.3h1.49A0.15,0.15,0,1,1,35.25,96.19Zm-3,0H30.78a0.15,0.15,0,0,1,0-.3h1.49A0.15,0.15,0,0,1,32.27,96.19Zm-3,0H27.81a0.15,0.15,0,1,1,0-.3h1.49A0.15,0.15,0,0,1,29.29,96.19Zm-3,0H24.83a0.15,0.15,0,1,1,0-.3h1.49A0.15,0.15,0,0,1,26.32,96.19Zm-3,0H21.85a0.15,0.15,0,0,1,0-.3h1.49A0.15,0.15,0,1,1,23.34,96.19Zm-3,0H18.87a0.15,0.15,0,0,1,0-.3h1.49A0.15,0.15,0,1,1,20.36,96.19Zm-3,0H15.89a0.15,0.15,0,0,1,0-.3h1.49A0.15,0.15,0,0,1,17.38,96.19Zm-3,0h0a6.26,6.26,0,0,1-1.49-.33,0.15,0.15,0,0,1,.1-0.28,6,6,0,0,0,1.42.31A0.15,0.15,0,0,1,14.4,96.16Zm108.71-.25a0.15,0.15,0,0,1,0-.29,6,6,0,0,0,1.32-.59,0.15,0.15,0,1,1,.15.25,6.32,6.32,0,0,1-1.39.62h0ZM11.62,95.18l-0.08,0a6.4,6.4,0,0,1-1.16-1,0.15,0.15,0,1,1,.22-0.2,6.09,6.09,0,0,0,1.11.94A0.15,0.15,0,0,1,11.62,95.18Zm114-.78a0.15,0.15,0,0,1-.1-0.25,6.14,6.14,0,0,0,.9-1.14,0.15,0.15,0,1,1,.25.16,6.4,6.4,0,0,1-.94,1.19A0.15,0.15,0,0,1,125.64,94.39ZM9.61,93a0.15,0.15,0,0,1-.13-0.08,6.29,6.29,0,0,1-.58-1.41,0.15,0.15,0,0,1,.29-0.08,6,6,0,0,0,.55,1.34,0.15,0.15,0,0,1-.06.2Zm117.56-1.14h0a0.15,0.15,0,0,1-.1-0.19,6,6,0,0,0,.27-1.42,0.16,0.16,0,0,1,.16-0.14,0.15,0.15,0,0,1,.14.16,6.26,6.26,0,0,1-.28,1.5A0.15,0.15,0,0,1,127.17,91.88ZM8.83,90.18A0.15,0.15,0,0,1,8.68,90c0-.05,0-0.1,0-0.16V88.54a0.15,0.15,0,0,1,.3,0v1.34S9,90,9,90a0.15,0.15,0,0,1-.15.15h0Zm118.63-1.25a0.15,0.15,0,0,1-.15-0.15V87.29a0.15,0.15,0,0,1,.3,0v1.49A0.15,0.15,0,0,1,127.46,88.93ZM8.83,87.2A0.15,0.15,0,0,1,8.68,87V85.56a0.15,0.15,0,0,1,.3,0V87A0.15,0.15,0,0,1,8.83,87.2Zm118.63-1.25a0.15,0.15,0,0,1-.15-0.15V84.31a0.15,0.15,0,0,1,.3,0V85.8A0.15,0.15,0,0,1,127.46,85.95ZM8.83,84.22a0.15,0.15,0,0,1-.15-0.15V82.58a0.15,0.15,0,0,1,.3,0v1.49A0.15,0.15,0,0,1,8.83,84.22ZM127.46,83a0.15,0.15,0,0,1-.15-0.15V81.33a0.15,0.15,0,1,1,.3,0v1.49A0.15,0.15,0,0,1,127.46,83ZM8.83,81.24a0.15,0.15,0,0,1-.15-0.15V79.6a0.15,0.15,0,1,1,.3,0v1.49A0.15,0.15,0,0,1,8.83,81.24ZM127.46,80a0.15,0.15,0,0,1-.15-0.15V78.35a0.15,0.15,0,0,1,.3,0v1.49A0.15,0.15,0,0,1,127.46,80ZM8.83,78.26a0.15,0.15,0,0,1-.15-0.15V76.62a0.15,0.15,0,1,1,.3,0v1.49A0.15,0.15,0,0,1,8.83,78.26ZM127.46,77a0.15,0.15,0,0,1-.15-0.15V75.37a0.15,0.15,0,0,1,.3,0v1.49A0.15,0.15,0,0,1,127.46,77ZM8.83,75.28a0.15,0.15,0,0,1-.15-0.15V73.64a0.15,0.15,0,0,1,.3,0v1.49A0.15,0.15,0,0,1,8.83,75.28ZM127.46,74a0.15,0.15,0,0,1-.15-0.15V72.39a0.15,0.15,0,0,1,.3,0v1.49A0.15,0.15,0,0,1,127.46,74ZM8.83,72.3a0.15,0.15,0,0,1-.15-0.15V70.66a0.15,0.15,0,0,1,.3,0v1.49A0.15,0.15,0,0,1,8.83,72.3Zm118.63-1.25a0.15,0.15,0,0,1-.15-0.15V69.41a0.15,0.15,0,0,1,.3,0V70.9A0.15,0.15,0,0,1,127.46,71.05ZM8.83,69.32a0.15,0.15,0,0,1-.15-0.15V67.68a0.15,0.15,0,0,1,.3,0v1.49A0.15,0.15,0,0,1,8.83,69.32Zm118.63-1.25a0.15,0.15,0,0,1-.15-0.15V66.44a0.15,0.15,0,1,1,.3,0v1.49A0.15,0.15,0,0,1,127.46,68.07ZM8.83,66.34a0.15,0.15,0,0,1-.15-0.15V64.7a0.15,0.15,0,1,1,.3,0v1.49A0.15,0.15,0,0,1,8.83,66.34Zm118.63-1.25a0.15,0.15,0,0,1-.15-0.15V63.46a0.15,0.15,0,1,1,.3,0v1.49A0.15,0.15,0,0,1,127.46,65.09ZM8.83,63.36a0.15,0.15,0,0,1-.15-0.15V61.72a0.15,0.15,0,1,1,.3,0v1.49A0.15,0.15,0,0,1,8.83,63.36Zm118.63-1.25a0.15,0.15,0,0,1-.15-0.15V60.48a0.15,0.15,0,0,1,.3,0V62A0.15,0.15,0,0,1,127.46,62.12ZM8.83,60.38a0.15,0.15,0,0,1-.15-0.15V58.75a0.15,0.15,0,0,1,.3,0v1.49A0.15,0.15,0,0,1,8.83,60.38Zm118.63-1.25a0.15,0.15,0,0,1-.15-0.15V57.5a0.15,0.15,0,0,1,.3,0V59A0.15,0.15,0,0,1,127.46,59.14ZM8.83,57.4a0.15,0.15,0,0,1-.15-0.15V55.77a0.15,0.15,0,0,1,.3,0v1.49A0.15,0.15,0,0,1,8.83,57.4Zm118.63-1.25a0.15,0.15,0,0,1-.15-0.15V54.52a0.15,0.15,0,0,1,.3,0V56A0.15,0.15,0,0,1,127.46,56.16ZM8.83,54.43a0.15,0.15,0,0,1-.15-0.15V52.79a0.15,0.15,0,0,1,.3,0v1.49A0.15,0.15,0,0,1,8.83,54.43Zm118.63-1.25a0.15,0.15,0,0,1-.15-0.15V51.54a0.15,0.15,0,0,1,.3,0V53A0.15,0.15,0,0,1,127.46,53.18ZM8.83,51.45a0.15,0.15,0,0,1-.15-0.15V49.81a0.15,0.15,0,0,1,.3,0V51.3A0.15,0.15,0,0,1,8.83,51.45ZM127.46,50.2a0.15,0.15,0,0,1-.15-0.15V48.56a0.15,0.15,0,1,1,.3,0v1.49A0.15,0.15,0,0,1,127.46,50.2ZM8.83,48.47a0.15,0.15,0,0,1-.15-0.15V46.83a0.15,0.15,0,1,1,.3,0v1.49A0.15,0.15,0,0,1,8.83,48.47Zm118.63-1.25a0.15,0.15,0,0,1-.15-0.15V45.58a0.15,0.15,0,0,1,.3,0v1.49A0.15,0.15,0,0,1,127.46,47.22ZM8.83,45.49a0.15,0.15,0,0,1-.15-0.15V43.85a0.15,0.15,0,1,1,.3,0v1.49A0.15,0.15,0,0,1,8.83,45.49Zm118.63-1.25a0.15,0.15,0,0,1-.15-0.15V42.6a0.15,0.15,0,0,1,.3,0v1.49A0.15,0.15,0,0,1,127.46,44.24ZM8.83,42.51a0.15,0.15,0,0,1-.15-0.15V40.87a0.15,0.15,0,0,1,.3,0v1.49A0.15,0.15,0,0,1,8.83,42.51Zm118.63-1.25a0.15,0.15,0,0,1-.15-0.15V39.62a0.15,0.15,0,0,1,.3,0v1.49A0.15,0.15,0,0,1,127.46,41.26ZM8.83,39.53a0.15,0.15,0,0,1-.15-0.15V37.89a0.15,0.15,0,0,1,.3,0v1.49A0.15,0.15,0,0,1,8.83,39.53Zm118.63-1.25a0.15,0.15,0,0,1-.15-0.15V36.64a0.15,0.15,0,0,1,.3,0v1.49A0.15,0.15,0,0,1,127.46,38.28ZM8.83,36.55a0.15,0.15,0,0,1-.15-0.15V34.91a0.15,0.15,0,0,1,.3,0V36.4A0.15,0.15,0,0,1,8.83,36.55ZM127.46,35.3a0.15,0.15,0,0,1-.15-0.15V33.67a0.15,0.15,0,1,1,.3,0v1.49A0.15,0.15,0,0,1,127.46,35.3ZM8.83,33.57a0.15,0.15,0,0,1-.15-0.15V31.93a0.15,0.15,0,0,1,.3,0v1.49A0.15,0.15,0,0,1,8.83,33.57Zm118.63-1.25a0.15,0.15,0,0,1-.15-0.15V30.69a0.15,0.15,0,1,1,.3,0v1.49A0.15,0.15,0,0,1,127.46,32.32ZM8.83,30.59a0.15,0.15,0,0,1-.15-0.15V29A0.15,0.15,0,1,1,9,29v1.49A0.15,0.15,0,0,1,8.83,30.59Zm118.63-1.25a0.15,0.15,0,0,1-.15-0.15V27.71a0.15,0.15,0,0,1,.3,0V29.2A0.15,0.15,0,0,1,127.46,29.35ZM8.83,27.61a0.15,0.15,0,0,1-.15-0.15V26A0.15,0.15,0,0,1,9,26v1.49A0.15,0.15,0,0,1,8.83,27.61Zm118.63-1.25a0.15,0.15,0,0,1-.15-0.15V24.73a0.15,0.15,0,0,1,.3,0v1.49A0.15,0.15,0,0,1,127.46,26.37ZM8.83,24.63a0.15,0.15,0,0,1-.15-0.15V23A0.15,0.15,0,0,1,9,23v1.49A0.15,0.15,0,0,1,8.83,24.63Zm118.63-1.25a0.15,0.15,0,0,1-.15-0.15V21.75a0.15,0.15,0,0,1,.3,0v1.49A0.15,0.15,0,0,1,127.46,23.39ZM8.83,21.66h0a0.15,0.15,0,0,1-.15-0.15A6.29,6.29,0,0,1,8.87,20a0.15,0.15,0,0,1,.18-0.11,0.15,0.15,0,0,1,.11.18A6,6,0,0,0,9,21.51,0.15,0.15,0,0,1,8.83,21.66Zm118.5-1.24a0.15,0.15,0,0,1-.15-0.12,6,6,0,0,0-.47-1.37A0.15,0.15,0,1,1,127,18.8a6.24,6.24,0,0,1,.49,1.44,0.15,0.15,0,0,1-.11.18h0ZM9.56,18.8l-0.07,0a0.15,0.15,0,0,1-.06-0.2,6.38,6.38,0,0,1,.87-1.25,0.15,0.15,0,0,1,.21,0,0.15,0.15,0,0,1,0,.21,6.06,6.06,0,0,0-.83,1.19A0.15,0.15,0,0,1,9.56,18.8Zm116.48-1a0.15,0.15,0,0,1-.11-0.05,6.13,6.13,0,0,0-1.05-1,0.15,0.15,0,1,1,.18-0.24,6.43,6.43,0,0,1,1.1,1,0.15,0.15,0,0,1,0,.21A0.15,0.15,0,0,1,126,17.76ZM11.53,16.6a0.15,0.15,0,0,1-.08-0.27,6.32,6.32,0,0,1,1.35-.7,0.15,0.15,0,0,1,.1.28,6,6,0,0,0-1.29.67ZM123.67,16h-0.06a6,6,0,0,0-1.4-.4,0.15,0.15,0,0,1,0-.29,6.3,6.3,0,0,1,1.46.42A0.15,0.15,0,0,1,123.67,16ZM14.29,15.56a0.15,0.15,0,0,1,0-.3,6.29,6.29,0,0,1,.72,0h1.5a0.15,0.15,0,1,1,0,.3H15c-0.21,0-.46,0-0.69,0h0Zm106.47,0h-1.49a0.15,0.15,0,0,1,0-.3h1.49A0.15,0.15,0,1,1,120.76,15.52Zm-3,0h-1.49a0.15,0.15,0,0,1,0-.3h1.49A0.15,0.15,0,1,1,117.78,15.52Zm-3,0h-1.49a0.15,0.15,0,1,1,0-.3h1.49A0.15,0.15,0,0,1,114.8,15.52Zm-3,0h-1.49a0.15,0.15,0,1,1,0-.3h1.49A0.15,0.15,0,0,1,111.82,15.52Zm-3,0h-1.49a0.15,0.15,0,0,1,0-.3h1.49A0.15,0.15,0,1,1,108.84,15.52Zm-3,0h-1.49a0.15,0.15,0,0,1,0-.3h1.49A0.15,0.15,0,0,1,105.86,15.52Zm-3,0h-1.49a0.15,0.15,0,0,1,0-.3h1.49A0.15,0.15,0,1,1,102.88,15.52Zm-3,0H98.41a0.15,0.15,0,0,1,0-.3H99.9A0.15,0.15,0,0,1,99.9,15.52Zm-3,0H95.43a0.15,0.15,0,1,1,0-.3h1.49A0.15,0.15,0,0,1,96.92,15.52Zm-3,0H92.45a0.15,0.15,0,1,1,0-.3h1.49A0.15,0.15,0,0,1,93.94,15.52Zm-3,0H89.48a0.15,0.15,0,0,1,0-.3H91A0.15,0.15,0,1,1,91,15.52Zm-3,0H86.5a0.15,0.15,0,0,1,0-.3H88A0.15,0.15,0,1,1,88,15.52Zm-3,0H83.52a0.15,0.15,0,0,1,0-.3H85A0.15,0.15,0,1,1,85,15.52Zm-3,0H80.54a0.15,0.15,0,0,1,0-.3H82A0.15,0.15,0,0,1,82,15.52Zm-3,0H77.56a0.15,0.15,0,1,1,0-.3H79A0.15,0.15,0,0,1,79,15.52Zm-3,0H74.58a0.15,0.15,0,1,1,0-.3h1.49A0.15,0.15,0,0,1,76.07,15.52Zm-3,0H71.6a0.15,0.15,0,0,1,0-.3h1.49A0.15,0.15,0,1,1,73.09,15.52Zm-3,0H68.62a0.15,0.15,0,0,1,0-.3h1.49A0.15,0.15,0,1,1,70.11,15.52Zm-3,0H65.64a0.15,0.15,0,0,1,0-.3h1.49A0.15,0.15,0,0,1,67.13,15.52Zm-3,0H62.66a0.15,0.15,0,1,1,0-.3h1.49A0.15,0.15,0,0,1,64.15,15.52Zm-3,0H59.68a0.15,0.15,0,1,1,0-.3h1.49A0.15,0.15,0,0,1,61.17,15.52Zm-3,0H56.71a0.15,0.15,0,1,1,0-.3H58.2A0.15,0.15,0,0,1,58.2,15.52Zm-3,0H53.73a0.15,0.15,0,0,1,0-.3h1.49A0.15,0.15,0,1,1,55.22,15.52Zm-3,0H50.75a0.15,0.15,0,0,1,0-.3h1.49A0.15,0.15,0,1,1,52.24,15.52Zm-3,0H47.77a0.15,0.15,0,0,1,0-.3h1.49A0.15,0.15,0,0,1,49.26,15.52Zm-3,0H44.79a0.15,0.15,0,1,1,0-.3h1.49A0.15,0.15,0,0,1,46.28,15.52Zm-3,0H41.81a0.15,0.15,0,1,1,0-.3H43.3A0.15,0.15,0,0,1,43.3,15.52Zm-3,0H38.83a0.15,0.15,0,1,1,0-.3h1.49A0.15,0.15,0,0,1,40.32,15.52Zm-3,0H35.85a0.15,0.15,0,0,1,0-.3h1.49A0.15,0.15,0,1,1,37.34,15.52Zm-3,0H32.87a0.15,0.15,0,0,1,0-.3h1.49A0.15,0.15,0,1,1,34.36,15.52Zm-3,0H29.89a0.15,0.15,0,0,1,0-.3h1.49A0.15,0.15,0,0,1,31.38,15.52Zm-3,0H26.91a0.15,0.15,0,1,1,0-.3H28.4A0.15,0.15,0,0,1,28.4,15.52Zm-3,0H23.94a0.15,0.15,0,1,1,0-.3h1.49A0.15,0.15,0,0,1,25.42,15.52Zm-3,0H21a0.15,0.15,0,0,1,0-.3h1.49A0.15,0.15,0,1,1,22.45,15.52Zm-3,0H18a0.15,0.15,0,0,1,0-.3h1.49A0.15,0.15,0,1,1,19.47,15.52Z" transform="translate(-4.64 -1.77)"/><path class="cls-7" d="M68.26,1.77c15.41,0,18.66,5.24,16,4.58A71.16,71.16,0,0,0,52,6.36C49.33,7,53,1.77,68.26,1.77Z" transform="translate(-4.64 -1.77)"/></svg>