<svg id="Layer_1" data-name="Layer 1" xmlns="http://www.w3.org/2000/svg" viewBox="0 0 135.04 102.71"><defs><style>.cls-1{fill:#91aeb5;}.cls-2{fill:#76939e;}.cls-3{fill:#ffd7af;}.cls-4{fill:#f5cda5;}.cls-5{fill:#fed9ae;}.cls-6{fill:#ffe1b9;}.cls-7{fill:#97be5d;}.cls-8{fill:#f0f0f0;}</style></defs><title>loan-options-personal-loan</title><path id="_Path_" data-name="&lt;Path&gt;" class="cls-1" d="M121.93,62c0.08-1,.15-2,0.15-3A35.75,35.75,0,0,0,55.24,41.28,22.77,22.77,0,0,0,29.32,60.35H21.48A21.36,21.36,0,0,0,.13,81.72h0a21.36,21.36,0,0,0,21.35,21.37h92.34a21.36,21.36,0,0,0,21.35-21.37h0A21.37,21.37,0,0,0,121.93,62Z" transform="translate(-0.13 -0.38)"/><path class="cls-2" d="M104,32c6.53-3.38,1.87-17.13-7-12.24,6.53-9-5.13-14.1-8-10.72,0-9.91-15.34-11.44-19.82-3.28V5.55C64.61-2.61,49.46-.86,49.46,9c-2.91-3.38-14.57,1.75-8,10.72-8.86-4.89-13.52,8.86-7,12.24-9.32-2-12.7,17.36,1.51,17.36-6.06,3.73,0,22,13.17,15.15-0.57,6.76,8.1,13.16,13.59,7.41l0.27-.3L69.1,47.9V40.45l6.3,31.18,0.27,0.3c5.5,5.75,14.17-.64,13.59-7.41,13.17,6.87,19.23-11.42,13.17-15.15C116.66,49.37,113.28,30,104,32Z" transform="translate(-0.13 -0.38)"/><path class="cls-3" d="M69,85.29L80.81,76s-1.7-2.28-2.42-9.34H59.69C59,73.68,57.27,76,57.27,76L69,85.29h0Z" transform="translate(-0.13 -0.38)"/><path class="cls-4" d="M78.39,66.61H59.69c-0.08.73-.16,1.39-0.25,2a15.12,15.12,0,0,0,19.21,0C78.55,68,78.47,67.34,78.39,66.61Z" transform="translate(-0.13 -0.38)"/><path class="cls-5" d="M69,69.83c11,0,19.46-11.54,19.46-30.65,0-23.83-7-29.37-19.46-29.37S49.58,15.35,49.58,39.18C49.58,58.29,58,69.83,69,69.83Z" transform="translate(-0.13 -0.38)"/><path class="cls-6" d="M69.28,9.82v60c10.89-.17,19.22-11.66,19.22-30.63C88.51,15.51,81.6,9.89,69.28,9.82Z" transform="translate(-0.13 -0.38)"/><path class="cls-2" d="M87.16,17.22C77,4.2,69.56,9.56,69.07,9.93c-0.49-.38-8-5.73-18.09,7.29-10.49,13.48-.46,30-0.46,30h1.39s-0.46-11.45,1.63-16.81,6.53-7.75,8.39-7.75S65.5,25.53,69,25.56H69.1c3.54,0,5.26-2.86,7.11-2.86s6.29,2.38,8.39,7.75,1.63,16.81,1.63,16.81h1.4S97.65,30.7,87.16,17.22Z" transform="translate(-0.13 -0.38)"/><path class="cls-3" d="M51.09,51.42s-3,3.2-4.47-4.43c-1.56-8.16-1.51-12.59,1.29-13.52a1.69,1.69,0,0,1,2.31.93Z" transform="translate(-0.13 -0.38)"/><path class="cls-3" d="M87.28,51.42s3,3.2,4.47-4.43c1.56-8.16,1.5-12.59-1.29-13.52a1.68,1.68,0,0,0-2.31.93Z" transform="translate(-0.13 -0.38)"/><path class="cls-7" d="M101.8,86a7,7,0,0,0-4.18-4.08L80.92,76,69.1,83.58,57.27,76l-16.7,5.94A7,7,0,0,0,36.39,86l-6.54,17h78.49Z" transform="translate(-0.13 -0.38)"/><polygon class="cls-8" points="91.82 79.49 84.53 98.78 68.94 98.78 68.89 98.78 53.3 98.78 46.07 79.51 41.77 81.03 45.59 102.59 68.89 102.59 68.94 102.59 92.25 102.59 95.89 80.93 91.82 79.49"/></svg>