<svg id="Layer_2" data-name="Layer 2" xmlns="http://www.w3.org/2000/svg" viewBox="0 0 120.53 101.32"><defs><style>.cls-1{fill:#73b6c6;}.cls-1,.cls-3,.cls-4,.cls-5,.cls-7,.cls-8{fill-rule:evenodd;}.cls-2,.cls-4{fill:#535b7c;}.cls-3,.cls-6{fill:#fff;}.cls-5{fill:#636c89;}.cls-7{fill:#e23963;}.cls-8{fill:#80c5d7;}</style></defs><title>loan-options-automobile-loan</title><path class="cls-1" d="M21.62,32.93c-0.26,0-1.52,0-1.52,0a9.49,9.49,0,0,0-.6-3.75c-0.69-1.29-2.75-1.49-4.67-1.46S9.76,28.86,8.7,30.86C7.76,32.63,8.23,35.3,10.28,36a36.51,36.51,0,0,0,5.63,1,29.14,29.14,0,0,0,4.56.46C20.47,37.34,21.62,32.93,21.62,32.93Z" transform="translate(-7.71 -0.96)"/><path class="cls-1" d="M21.62,32.93c-0.26,0-1.52,0-1.52,0a9.49,9.49,0,0,0-.6-3.75c-0.69-1.29-2.75-1.49-4.67-1.46a9.1,9.1,0,0,0-3.58.91,4.12,4.12,0,0,0-.84,1.07C9.48,31.48,10,34.16,12,34.86a36.51,36.51,0,0,0,5.63,1c1,0.14,2.19.3,3.12,0.4C21.1,34.93,21.62,32.93,21.62,32.93Z" transform="translate(-7.71 -0.96)"/><path class="cls-1" d="M114.18,32.67c0.26,0,1.52,0,1.52,0a9.49,9.49,0,0,1,.6-3.75C117,27.65,119,27.45,121,27.48S126,28.6,127.1,30.6c0.93,1.76.46,4.44-1.59,5.14a36.51,36.51,0,0,1-5.63,1,29.18,29.18,0,0,1-4.56.46C115.32,37.08,114.18,32.67,114.18,32.67Z" transform="translate(-7.71 -0.96)"/><path class="cls-1" d="M114.18,32.67c0.26,0,1.52,0,1.52,0a9.49,9.49,0,0,1,.6-3.75C117,27.65,119,27.45,121,27.48a9.1,9.1,0,0,1,3.58.91,4.12,4.12,0,0,1,.84,1.07c0.93,1.76.46,4.44-1.59,5.14a36.54,36.54,0,0,1-5.63,1c-1,.14-2.19.3-3.12,0.4C114.7,34.67,114.18,32.67,114.18,32.67Z" transform="translate(-7.71 -0.96)"/><rect class="cls-2" x="100.71" y="60.86" width="19.81" height="40.46" rx="6.3" ry="6.3"/><rect class="cls-2" y="60.86" width="19.81" height="40.46" rx="6.3" ry="6.3"/><path class="cls-1" d="M68,22.28h0C67.79,22.74,68,1.08,68,1c0,0.11.23,21.77,0,21.32h0ZM68,1h0C59,1.41,47.16.75,40,2.55a16.26,16.26,0,0,0-11.17,9.39c-2.51,5.37-6.16,13.46-7,17.19-1.23,5.27-2.67,10.57-2.67,10.57s-5.9,2.72-7.34,4.38-2.18,3.64-2.92,8.17S8.29,68.48,8.41,74.44s1.26,8.77,3,10.83C17.64,92.46,46.12,94.2,68,93.52h0c21.89,0.68,50.38-1.07,56.57-8.25,1.78-2.06,2.92-4.87,3-10.83s0.29-17.65-.46-22.18-1.49-6.51-2.92-8.17-7.34-4.38-7.34-4.38-1.43-5.3-2.67-10.57c-0.87-3.73-4.53-11.82-7-17.19A16.26,16.26,0,0,0,96,2.55C88.86,0.75,77,1.41,68,1Z" transform="translate(-7.71 -0.96)"/><path class="cls-1" d="M11.79,44.09s-0.66,20.8-.21,21.5,7,1.94,22.3,5.41S68,75.07,68,75.07V47.27L19.91,36.74c-0.46,1.79-.78,3-0.78,3S13.22,42.43,11.79,44.09Z" transform="translate(-7.71 -0.96)"/><path class="cls-1" d="M19.59,38a4.72,4.72,0,0,1,1.05-1.56,7.2,7.2,0,0,1,2.75-1.68C37.27,40,30.69,56.42,68,59.82c0,0-18.47,7-31-1.67S19.13,42.86,16,41.28c1.66-.89,3.14-1.57,3.14-1.57S19.31,39,19.59,38Z" transform="translate(-7.71 -0.96)"/><path class="cls-3" d="M21.55,63A8.69,8.69,0,1,0,13,54.34,8.63,8.63,0,0,0,21.55,63Z" transform="translate(-7.71 -0.96)"/><path class="cls-4" d="M38.47,4.66C31.09,7.71,21.1,32,23.4,34.72c0.67,0.8,88.57.8,89.24,0,2.3-2.76-7.69-27-15.07-30.06S45.73,1.66,38.47,4.66Z" transform="translate(-7.71 -0.96)"/><path class="cls-5" d="M83.77,35.29c15.82-.07,28.61-0.26,28.86-0.57,2.3-2.76-7.69-27-15.07-30.06-5.34-2.21-30.19-2.79-46.22-1.8Z" transform="translate(-7.71 -0.96)"/><path class="cls-4" d="M18.62,77l0.29,0h0.17a3.7,3.7,0,0,1,.81.09L37,78.61l2.75,8.31L19.54,85v0l-0.45,0a4,4,0,0,1-.46-7.91V77Z" transform="translate(-7.71 -0.96)"/><path class="cls-4" d="M117.4,77l-0.29,0h-0.17a3.7,3.7,0,0,0-.81.09L99,78.61l-2.75,8.31L116.49,85v0l0.45,0a4,4,0,0,0,.46-7.91V77Z" transform="translate(-7.71 -0.96)"/><path class="cls-4" d="M41.22,79.6c0.21,1.21.84,4.35,2,5.79a8,8,0,0,0,5.3,2.87c6.8,1,32.28,1,39.08,0a8,8,0,0,0,5.3-2.87c1.12-1.44,1.75-4.58,2-5.79,0.14-.83-0.35-0.8-1.37-0.85-8.46-.43-42.39-0.43-50.85,0C41.57,78.8,41.08,78.78,41.22,79.6Z" transform="translate(-7.71 -0.96)"/><path class="cls-3" d="M21.57,62.35a8.28,8.28,0,1,0-8.28-8.28A8.3,8.3,0,0,0,21.57,62.35Z" transform="translate(-7.71 -0.96)"/><path class="cls-3" d="M21.57,61.77a7.71,7.71,0,1,0-7.71-7.71A7.72,7.72,0,0,0,21.57,61.77Z" transform="translate(-7.71 -0.96)"/><circle class="cls-6" cx="13.87" cy="50.11" r="3.37"/><path class="cls-7" d="M12.43,67.14l10.13,2a1.26,1.26,0,0,1,1,1.34l-0.11,1a1,1,0,0,1-1.23.91l-10.13-2a1.26,1.26,0,0,1-1-1.34l0.11-1A1,1,0,0,1,12.43,67.14Z" transform="translate(-7.71 -0.96)"/><path class="cls-7" d="M123.6,67.14l-10.13,2a1.26,1.26,0,0,0-1,1.34l0.11,1a1,1,0,0,0,1.23.91l10.13-2a1.26,1.26,0,0,0,1-1.34l-0.11-1A1,1,0,0,0,123.6,67.14Z" transform="translate(-7.71 -0.96)"/><circle class="cls-6" cx="11.8" cy="80" r="2.58"/><circle class="cls-6" cx="108.82" cy="80" r="2.58"/><path class="cls-1" d="M19.59,38h0Zm92.94-3.19,0.1,0a7.2,7.2,0,0,1,2.75,1.68A4.72,4.72,0,0,1,116.44,38h0l0.37,1.4C105.39,37.23,105,49.61,96.1,55.3,91.63,58.16,87.35,59,80.55,59.4a1.12,1.12,0,0,1-.86.41H56.35a1.12,1.12,0,0,1-.86-0.41C48.67,59,44.4,58.16,39.93,55.3,31,49.61,30.64,37.23,19.22,39.35L19.59,38h0a4.73,4.73,0,0,1,1.05-1.56,7.2,7.2,0,0,1,2.75-1.68l0.1,0c15,5.82,9.33,24,44.53,23.88,35.47-.11,29.36-18,44.51-23.88h0Zm3.9,3.19h0Z" transform="translate(-7.71 -0.96)"/><path class="cls-3" d="M114.39,62.75a8.69,8.69,0,1,0-8.53-8.69A8.63,8.63,0,0,0,114.39,62.75Z" transform="translate(-7.71 -0.96)"/><path class="cls-3" d="M114.42,62.07a8.28,8.28,0,1,0-8.28-8.28A8.3,8.3,0,0,0,114.42,62.07Z" transform="translate(-7.71 -0.96)"/><path class="cls-3" d="M114.42,61.5a7.71,7.71,0,1,0-7.71-7.71A7.72,7.72,0,0,0,114.42,61.5Z" transform="translate(-7.71 -0.96)"/><circle class="cls-6" cx="106.71" cy="49.83" r="3.37"/><path class="cls-4" d="M19.13,39.71C30.52,37.46,30.92,50.27,39.8,56c6.72,4.31,13.11,3.86,28.21,4.3h0c15.1-.44,21.49,0,28.21-4.3,8.88-5.69,9.28-18.5,20.67-16.25l-0.09-.35C105.39,37.23,105,49.61,96.1,55.3c-6.72,4.31-13,4.08-28.09,4.52h0c-15.1-.44-21.36-0.22-28.09-4.52C31,49.61,30.64,37.23,19.22,39.35Z" transform="translate(-7.71 -0.96)"/><path class="cls-8" d="M68,60.25h0Zm-1.18,0c-14.26-.39-20.49-0.07-27-4.26-8.88-5.69-9.28-18.5-20.67-16.25,0,0-1.48.68-3.14,1.57a17.8,17.8,0,0,0-4.2,2.81s-0.39,12.28-.36,18.29a16.84,16.84,0,0,0,.15,3.21c0.38,0.59,5.17,1.58,15.94,4L33.88,71C49.15,74.47,68,75.07,68,75.07V60.25l-1.18,0h0ZM21.44,45.65h0.11A8.58,8.58,0,0,1,30,52.91a8.91,8.91,0,0,1,.12,1.43,8.68,8.68,0,0,1-5.86,8.25,8.42,8.42,0,0,1-7-.77A8.71,8.71,0,0,1,13,54.34,8.61,8.61,0,0,1,21.44,45.65Z" transform="translate(-7.71 -0.96)"/><path class="cls-8" d="M68,60.25h0Zm1.18,0c14.26-.39,20.49-0.07,27-4.26,8.88-5.69,9.28-18.5,20.67-16.25,0,0,1.48.68,3.14,1.57a17.8,17.8,0,0,1,4.2,2.81s0.39,12.28.36,18.29a16.82,16.82,0,0,1-.15,3.21c-0.38.59-5.17,1.58-15.94,4L102.15,71C86.88,74.47,68,75.07,68,75.07V60.25l1.18,0h0Zm45.39-14.57h-0.11a8.58,8.58,0,0,0-8.42,7.26,8.9,8.9,0,0,0-.12,1.43,8.68,8.68,0,0,0,5.86,8.25,8.42,8.42,0,0,0,7-.77,8.71,8.71,0,0,0,4.2-7.48A8.61,8.61,0,0,0,114.59,45.65Z" transform="translate(-7.71 -0.96)"/></svg>