<svg id="Layer_1" data-name="Layer 1" xmlns="http://www.w3.org/2000/svg" viewBox="0 0 285.25 248.201"><defs><style>.cls-1{fill:#ef4a73;}.cls-2{opacity:0.2;}.cls-3{fill:#1c1c1c;}.cls-4{fill:#617c32;opacity:0.3;}.cls-5{fill:#76949e;}.cls-6{fill:#8b372f;}.cls-7{fill:#fff;}.cls-8{fill:#d1d1d1;}.cls-9{fill:#ffe3bd;}.cls-10{fill:#ddab85;}.cls-11{fill:#722d26;}.cls-12{fill:#a03f35;}.cls-13{fill:#b9493e;}.cls-14{fill:#91aeb5;}.cls-15{fill:#fcd3a7;}.cls-16{fill:#d35345;}.cls-17{fill:#e33964;}.cls-18{fill:#f97da0;}.cls-19{fill:#cf9e76;}.cls-20{fill:#ecc19c;}.cls-21{fill:#888;}.cls-22{fill:#68868e;}.cls-23{fill:#f0d0b4;}.cls-24{fill:#c2c2c2;}.cls-25{fill:#8285a8;}</style></defs><title>woman-at-desk</title><path class="cls-1" d="M312.329,112.17A117.471,117.471,0,0,0,178.9,18.6,117.547,117.547,0,0,1,308.316,139.128,129.853,129.853,0,0,1,298.2,172.156a117,117,0,0,0,.793-47.8c-12.134-63.8-74.16-105.8-137.9-93.364q-0.671.131-1.339,0.269a99.718,99.718,0,0,0-28.61,10.7h26.665a5.777,5.777,0,0,1,5.777,5.777h0a5.777,5.777,0,0,1-5.777,5.777H114.712A97.678,97.678,0,0,0,88.087,90.672a117.527,117.527,0,0,0,75.536,156.639A130.625,130.625,0,0,1,49.831,133.661,130.641,130.641,0,0,0,236.05,245.439C289.716,226.392,323.544,169.66,312.329,112.17ZM284.511,206.4c0.337-.566.665-1.137,0.993-1.709a130.588,130.588,0,0,0,9.88-15.586A118.234,118.234,0,0,1,284.511,206.4Z" transform="translate(-29.224 -11.447)"/><g class="cls-2"><path class="cls-3" d="M277.806,53.038c-0.266.057-.53,0.125-0.794,0.2-0.22.059-.44,0.117-0.658,0.186-0.266.084-.528,0.181-0.79,0.278l-0.238.091a116.94,116.94,0,0,1,18.419,24.876l0.038-.047q0.356-.452.675-0.922c0.061-.09.126-0.177,0.185-0.267q0.373-.575.69-1.174c0.069-.13.131-0.261,0.2-0.392q0.213-.429.4-0.867c0.068-.159.136-0.317,0.2-0.477,0.138-.358.265-0.72,0.377-1.086,0.065-.21.118-0.423,0.174-0.635,0.025-.1.046-0.194,0.07-0.29a117.063,117.063,0,0,0-15.558-19.82c-0.14,0-.28,0-0.42,0q-0.4.01-.791,0.04c-0.233.017-.465,0.038-0.7,0.066-0.265.032-.529,0.072-0.793,0.117C278.259,52.95,278.032,52.99,277.806,53.038Z" transform="translate(-29.224 -11.447)"/><path class="cls-3" d="M294.464,80c0.23,0.43.462,0.857,0.687,1.29a14.507,14.507,0,0,0,1.814-3.527h0A11.253,11.253,0,0,1,294.464,80Z" transform="translate(-29.224 -11.447)"/><path class="cls-3" d="M284.511,206.4c0.337-.566.665-1.137,0.993-1.709q1.464-1.986,2.84-4.013l1.151-5.9a22.234,22.234,0,0,0-9.891-23.018l-13.7-8.71-0.85-16.282c0.13-.159.259-0.318,0.386-0.478,0.207-.261.409-0.523,0.608-0.787q0.228-.3.45-0.6,0.278-.381.548-0.765c0.153-.219.3-0.44,0.45-0.661,0.166-.248.332-0.5,0.492-0.746s0.3-.482.449-0.725,0.291-.472.43-0.709c0.166-.284.322-0.571,0.48-0.858,0.111-.2.227-0.4,0.333-0.6q0.379-.716.723-1.441c0.085-.178.161-0.358,0.242-0.536,0.147-.323.294-0.645,0.43-0.969,0.087-.206.166-0.413,0.248-0.62,0.119-.3.237-0.6,0.347-0.9,0.078-.214.151-0.429,0.225-0.644,0.092-.269.182-0.537,0.267-0.807v0.008h0s0.11-.054.3-0.152a24.837,24.837,0,0,1,2.284,2.058c1.228,1.274,2.407,4.609,2.407,4.609a10.276,10.276,0,0,0-.862-4.834,7.034,7.034,0,0,0-2.361-2.662h0a10.275,10.275,0,0,1,3.147,1.052c3.007,1.574,5.546,6.67,5.546,6.67s0-4.347-2.719-7.18a16.344,16.344,0,0,0-3.134-2.415,42.976,42.976,0,0,0,5.886-5.089q0.486-.505.969-1.044a35.943,35.943,0,0,0,5.3-7.684,32.428,32.428,0,0,0,1.38-3.112,31.594,31.594,0,0,0,1.8-7.071q0.128-.955.2-1.947t0.087-2.019c0-.37-0.012-0.752-0.019-1.128a117.218,117.218,0,0,0-35.687-47.519c-10.434-1.991-24.213-.927-38.126,7.962-9.407,6.011-11.286,12.255-10.965,16.813h0c0.016,0.227.039,0.449,0.066,0.667,0,0.031.006,0.064,0.01,0.095,0.026,0.206.058,0.4,0.092,0.6,0.007,0.041.013,0.084,0.02,0.125,0.034,0.19.073,0.374,0.114,0.555,0.01,0.045.019,0.09,0.029,0.134,0.041,0.177.086,0.347,0.132,0.515,0.012,0.045.024,0.09,0.036,0.134,0.047,0.165.1,0.324,0.146,0.48,0.014,0.043.027,0.086,0.041,0.128,0.051,0.153.1,0.3,0.156,0.445l0.044,0.119c0.053,0.141.107,0.276,0.161,0.408l0.047,0.112q0.081,0.192.162,0.37l0.046,0.1c0.054,0.116.107,0.227,0.16,0.333l0.046,0.09c0.052,0.1.1,0.2,0.151,0.29l0.046,0.083c0.048,0.087.094,0.17,0.137,0.246l0.04,0.068c0.043,0.074.085,0.144,0.123,0.207l0.033,0.052c0.037,0.059.072,0.116,0.1,0.164l0.029,0.044,0.074,0.111,0.043,0.061L209.907,86l0.024,0.033s-10.784,7.582-4.127,43.49c3.2,17.252,9.971,33.521,27.517,33.521,0.738,0,1.474-.032,2.208-0.081L235.8,167l-2.557,1.847h0L220.851,177.8l-0.366,1.3-19.431,39.726-0.261-.2a1.306,1.306,0,0,0-1.8.225l-2.809,3.53L185.11,186.9a8.119,8.119,0,0,0-.57-1.359l3.021-5.631a2.408,2.408,0,0,0-.983-3.261h0a2.408,2.408,0,0,0-3.261.983l-2.371,4.419a8.093,8.093,0,0,0-2.823-.8c0.231-1.356.87-5.6,0.371-8.4-0.6-3.373-3.9-5.818-5.246-3.658s1.124,3.134,1.349,6.206a24.945,24.945,0,0,1-1.052,6.79,8.094,8.094,0,0,0-3.89,9.535l15.186,48.672a12.286,12.286,0,0,0,4.551,6.318,8.1,8.1,0,0,0,.929,1.724h-11.81l-22.836-64.446a6.14,6.14,0,0,0-5.787-4.089H88.6a117.651,117.651,0,0,0,75.022,67.415A130.784,130.784,0,0,1,64.6,179.9H60.716A130.693,130.693,0,0,0,236.05,245.439a117.281,117.281,0,0,0,50.4-35.058l1.806-9.26C287.052,202.912,285.814,204.681,284.511,206.4ZM197.4,226.29l0-.01,0.006,0ZM210.43,236.5l0.045-.093,0.134,0.1Z" transform="translate(-29.224 -11.447)"/><path class="cls-3" d="M180.99,163.606a1.686,1.686,0,0,0,1.637-1.734l-0.315-11.005a1.686,1.686,0,0,0-3.371.1l0.315,11.006A1.686,1.686,0,0,0,180.99,163.606Z" transform="translate(-29.224 -11.447)"/><path class="cls-3" d="M190.265,168.208a1.686,1.686,0,0,0,2.353.39l8.954-6.406a1.686,1.686,0,1,0-1.962-2.743l-8.954,6.406A1.686,1.686,0,0,0,190.265,168.208Z" transform="translate(-29.224 -11.447)"/><path class="cls-3" d="M186.884,163.582a1.686,1.686,0,0,0,2.264-.749L194.093,153a1.686,1.686,0,0,0-3.013-1.515l-4.944,9.837A1.686,1.686,0,0,0,186.884,163.582Z" transform="translate(-29.224 -11.447)"/></g><path class="cls-4" d="M313.93,123.155q-3.361-3.1-7-5.88a117.7,117.7,0,0,1,1.385,21.853A129.853,129.853,0,0,1,298.2,172.156a117.705,117.705,0,0,0-3.053-62.66A100.44,100.44,0,0,0,154.11,156.425a28.225,28.225,0,1,0-8.125,49.866A99.77,99.77,0,0,0,158,245.466c1.857,0.656,3.727,1.282,5.62,1.845-1.665-.2-3.326-0.443-4.985-0.709a100.528,100.528,0,0,0,6.844,10.462,131.171,131.171,0,0,0,70.568-11.625C286.292,227.607,319.144,176.746,313.93,123.155ZM284.511,206.4c0.337-.566.665-1.137,0.993-1.709a130.588,130.588,0,0,0,9.88-15.586A118.234,118.234,0,0,1,284.511,206.4Z" transform="translate(-29.224 -11.447)"/><polygon class="cls-5" points="161.245 211.685 185.996 161.084 171.453 153.971 148.053 201.812 161.245 211.685"/><path class="cls-6" d="M253.324,119.613a7.04,7.04,0,0,1,2.848,2.96,10.276,10.276,0,0,1,.862,4.834s-1.18-3.335-2.407-4.609a25.6,25.6,0,0,0-2.652-2.346Z" transform="translate(-29.224 -11.447)"/><path class="cls-6" d="M254.186,116.69a22.1,22.1,0,0,1,5.6,3.762c2.719,2.834,2.719,7.181,2.719,7.181s-2.539-5.1-5.546-6.67a9.386,9.386,0,0,0-5.4-1.124Z" transform="translate(-29.224 -11.447)"/><polygon class="cls-7" points="213.129 247.201 216.559 138.571 186.777 147.451 172.003 169.579 162.643 247.201 213.129 247.201"/><path class="cls-8" d="M197.87,258.649h36.565l2.314-41.474-8.443-9.631a6.3,6.3,0,0,0-5.629,1.313c-2.814,2.251-6.942,2.439-9.006-.375s-5.253-5.066-8.068-4.691-2.251,29.268-2.251,29.268Z" transform="translate(-29.224 -11.447)"/><path class="cls-9" d="M216,158.9l-1.179-17.761,28.71-34.283,2.252,43.164-1.39,8.251a17.741,17.741,0,0,1-18.651,14.756l-5.259-.344a5.947,5.947,0,0,1-5.5-6.789Z" transform="translate(-29.224 -11.447)"/><path class="cls-10" d="M244.876,133.815c-2.316,4.832-9.308,14.422-16.475,19.225-5.131,3.439-9.688,3.415-12.6,2.794l-0.976-14.7,11.64-13.9,17.659-9.1Z" transform="translate(-29.224 -11.447)"/><path class="cls-6" d="M272.367,44.31a15.939,15.939,0,0,1-1.883,24.326,17.887,17.887,0,0,0,2.489-.906,11.146,11.146,0,0,0,3.868-3s-1.93,6.2-7.806,8.289c-4.03,1.436-2.86-.937-1.726-2.57A16.039,16.039,0,1,1,272.367,44.31Z" transform="translate(-29.224 -11.447)"/><path class="cls-7" d="M180.669,205.6l15.4,11.517a1.281,1.281,0,0,1,.285,1.769l-3.4,4.793a1.305,1.305,0,0,1-1.861.268l-15.456-11.965a1.28,1.28,0,0,1-.226-1.812l3.459-4.346A1.306,1.306,0,0,1,180.669,205.6Z" transform="translate(-29.224 -11.447)"/><path class="cls-9" d="M177.277,213.259l-12.291-39.395a8.095,8.095,0,1,0-15.454,4.822l15.186,48.671a12.265,12.265,0,0,0,10.834,8.606Q176.03,236,176.5,236a12.259,12.259,0,0,0,11.053-6.912l2.913-5.956Z" transform="translate(-29.224 -11.447)"/><path class="cls-11" d="M272.692,58.119a26.783,26.783,0,0,0,3.579-7.472,15.863,15.863,0,0,1-5.787,17.989,17.887,17.887,0,0,0,2.489-.906,11.146,11.146,0,0,0,3.868-3s-1.93,6.2-7.806,8.289c-4.03,1.436-2.86-.937-1.726-2.57a16.052,16.052,0,0,1-4.438,1.162,26.654,26.654,0,0,1,.346-6.83S267.908,65.343,272.692,58.119Z" transform="translate(-29.224 -11.447)"/><path class="cls-12" d="M249.682,44.367a16.042,16.042,0,0,1,21.485-1.137c0.019,1.349-.211,3.655-1.258,4.82-3.877,4.315-13.008,4.128-13.008,4.128a12.858,12.858,0,0,0,5,1.5,42.563,42.563,0,0,0,4.378-.25s-4.128,3.127-11.257,2.377c-2.734-.288-6.7.01-10-0.356A15.978,15.978,0,0,1,249.682,44.367Z" transform="translate(-29.224 -11.447)"/><path class="cls-13" d="M252.973,53.52s18.049,8.56,19.262,34.459c1.063,22.7-20.192,32.913-20.192,32.913L248.47,64.714Z" transform="translate(-29.224 -11.447)"/><path class="cls-9" d="M213.2,150.018h0c20.325,0,39.236-18.925,40.111-35.961L252.973,53.52l-0.75-1.313-47.4-.813-15.01,21.614s-10.784,7.582-4.127,43.49C188.879,133.749,195.652,150.018,213.2,150.018Z" transform="translate(-29.224 -11.447)"/><path class="cls-13" d="M259.046,42.079a8.313,8.313,0,0,1,4.715.577c1.967,1.073.794,3.761-1.675,5.379s-6.9.94-7.7-1.539S257.579,42.194,259.046,42.079Z" transform="translate(-29.224 -11.447)"/><circle class="cls-6" cx="192.35" cy="92.344" r="3.653"/><circle class="cls-6" cx="164.104" cy="92.344" r="3.653"/><circle class="cls-7" cx="165.199" cy="91.25" r="1.401"/><path class="cls-6" d="M215.271,86.032a5.1,5.1,0,0,1,.324-0.733,7.942,7.942,0,0,1,1.239-1.736,7.844,7.844,0,0,1,1.087-.968,6.96,6.96,0,0,1,1.432-.829,5.687,5.687,0,0,1,.833-0.3,4.263,4.263,0,0,1,.89-0.2A5.133,5.133,0,0,1,222,81.177c0.167,0,.286-0.013.494-0.011l0.425,0.026a14.132,14.132,0,0,1,1.758.237,10.207,10.207,0,0,1,1.667.508,7.541,7.541,0,0,1,1.457.737,6.442,6.442,0,0,1,1.157.891,6.045,6.045,0,0,1,1.3,1.713,3.272,3.272,0,0,1,.284.754,7.772,7.772,0,0,0-2.115-1.776,9.77,9.77,0,0,0-1.16-.586,11.494,11.494,0,0,0-1.358-.477c-0.476-.15-0.993-0.226-1.5-0.337a15.7,15.7,0,0,0-1.6-.172l-0.424-.039-0.356,0a3.875,3.875,0,0,0-.756.043,6.288,6.288,0,0,0-1.45.3,9.311,9.311,0,0,0-2.428,1.213,13.752,13.752,0,0,0-1.563,1.273C215.465,85.816,215.271,86.032,215.271,86.032Z" transform="translate(-29.224 -11.447)"/><path class="cls-6" d="M199.2,86.032a10.587,10.587,0,0,0-2.888-2.469,8.305,8.305,0,0,0-1.195-.54,6.166,6.166,0,0,0-1.334-.316,7.082,7.082,0,0,0-1.392-.06c-0.523.061-1.076,0.059-1.52,0.148a13.477,13.477,0,0,0-1.38.271,6.8,6.8,0,0,0-2.24,1.017,5.358,5.358,0,0,0-.747.668,4.466,4.466,0,0,0-.486.635,3.341,3.341,0,0,0-.332.645,2.3,2.3,0,0,1,.041-0.757,4,4,0,0,1,.91-1.838,5.2,5.2,0,0,1,1.047-.936c0.207-.139.429-0.263,0.656-0.4,0.232-.118.479-0.209,0.727-0.317a7.62,7.62,0,0,1,1.591-.436,10.8,10.8,0,0,1,1.617-.185,8.369,8.369,0,0,1,1.753.127,7.539,7.539,0,0,1,1.594.542,7.324,7.324,0,0,1,1.306.837,7.5,7.5,0,0,1,.966.962,7.192,7.192,0,0,1,1.053,1.692A4.655,4.655,0,0,1,199.2,86.032Z" transform="translate(-29.224 -11.447)"/><path class="cls-6" d="M221.575,103.791l1.214-.291c0.344-.088.726-0.193,1.114-0.319a8.658,8.658,0,0,0,1.145-.463,4.683,4.683,0,0,0,.541-0.288c0.186-.088.334-0.225,0.507-0.325s0.311-.24.47-0.349,0.282-.244.418-0.355,0.272-.213.368-0.323,0.2-.2.285-0.271c0.169-.15.281-0.237,0.281-0.237a3.377,3.377,0,0,1-.011.364,2.921,2.921,0,0,1-.2.942,2.416,2.416,0,0,1-.274.595,3.73,3.73,0,0,1-1.016,1.16,3.658,3.658,0,0,1-.713.438,4.28,4.28,0,0,1-2.929.289A3,3,0,0,1,221.575,103.791Z" transform="translate(-29.224 -11.447)"/><circle class="cls-7" cx="193.445" cy="91.25" r="1.401"/><path class="cls-6" d="M193.329,103.791a3,3,0,0,1-1.2.567,4.28,4.28,0,0,1-2.929-.289,3.661,3.661,0,0,1-.713-0.438,3.727,3.727,0,0,1-1.016-1.16,2.416,2.416,0,0,1-.274-0.595,2.918,2.918,0,0,1-.2-0.942,3.377,3.377,0,0,1-.011-0.364s0.112,0.087.281,0.237c0.082,0.076.185,0.165,0.285,0.271s0.245,0.2.368,0.323,0.26,0.246.418,0.355,0.3,0.246.47,0.349,0.321,0.237.507,0.325a4.685,4.685,0,0,0,.542.288,8.657,8.657,0,0,0,1.145.463c0.388,0.126.77,0.231,1.114,0.319Z" transform="translate(-29.224 -11.447)"/><path class="cls-14" d="M200.727,164.767L191.7,196.8a21.062,21.062,0,0,0-.555,8.844l1.6,10.641,3.931-2.178Z" transform="translate(-29.224 -11.447)"/><path class="cls-15" d="M243.893,108.464a68.927,68.927,0,0,0-8.005-29.018s7.161-3.642,17.235,1l0.187,33.613c-0.773,15.05-15.624,31.565-33.089,35.213C233.814,140.7,244.389,124.34,243.893,108.464Z" transform="translate(-29.224 -11.447)"/><path class="cls-13" d="M252.973,53.52s-22.264,12.946-23.014,18.7,9.756,7.5,15.51,15.26a51.931,51.931,0,0,1,7.879,15.826l2.252-30.3Z" transform="translate(-29.224 -11.447)"/><path class="cls-13" d="M238.614,59.87a53.33,53.33,0,0,0-10.657,9.847s-11.332-3.452-21.363-2.539a36.607,36.607,0,0,0-16.786,5.828s-9.193-12.233,8.631-23.621c14.2-9.072,28.268-10,38.775-7.844a23.055,23.055,0,0,1,15.009,10.664S247.52,53.8,238.614,59.87Z" transform="translate(-29.224 -11.447)"/><path class="cls-12" d="M249.368,78.821h0c0.5-.138.982-0.3,1.453-0.481l0.035-.013a12.051,12.051,0,0,0,1.368-.632c0.362-.2.7-0.4,1.029-0.6,0.125-.077.244-0.155,0.365-0.232,0.188-.12.372-0.241,0.548-0.362,0.144-.1.286-0.2,0.423-0.3s0.252-.187.375-0.28c0.15-.114.3-0.228,0.445-0.342,3.592-2.9,4.244-5.644,4.244-5.644a18.306,18.306,0,0,1-1,6.879,15.667,15.667,0,0,1-2.376,4.5s6,2.752,9.506,0c2.333-1.833,2.942-5.992,3.054-9.345a47.739,47.739,0,0,1,3.4,16c1.063,22.7-20.192,32.913-20.192,32.913l-1.6-25.085a50.913,50.913,0,0,0-4.979-8.328c-3-4.038-7.279-6.448-10.592-8.643C234.877,78.835,243.007,80.591,249.368,78.821Z" transform="translate(-29.224 -11.447)"/><path class="cls-14" d="M229.864,223.021l-3.711,35.627h35.03L257.6,242.076l11.768-60.33a22.234,22.234,0,0,0-9.891-23.018l-13.7-8.711L234.5,178.525l-0.851,8.175-4.8,17.029a21.059,21.059,0,0,0-.555,8.844Z" transform="translate(-29.224 -11.447)"/><path class="cls-5" d="M259.5,258.649l-6.241-19.21V222.366l-8.755-3.19s-3.877.125-4.5-1.751-1.126-10.006-1.126-10.006L233,224.93l-6.186,27.4-0.658,6.319H259.5Z" transform="translate(-29.224 -11.447)"/><path class="cls-5" d="M228.036,244.276c-0.046-.082-0.16-0.286-0.324-0.593l2.152-20.662-1.571-10.447a21.062,21.062,0,0,1,.555-8.844l4.692-16.651,6.259-4.109,2.065,13.066-1.942,6.79c-1.508,5.455-3.321,12.5-3.174,14.349,0.25,3.127.751,13.285-1.251,17.9s-8.688,17.256-8.688,17.256Z" transform="translate(-29.224 -11.447)"/><path class="cls-14" d="M201.525,258.649l5.656-38.97-1.339-8.9a21.06,21.06,0,0,1,.555-8.844l6.927-24.582L216,158.9l-0.327-4.928-14.947,10.8-11.435,73.8-3.3,20.079h15.535Z" transform="translate(-29.224 -11.447)"/><path class="cls-14" d="M199.852,205.542a12.445,12.445,0,0,1-4.378.5,6.326,6.326,0,0,1-3.752-1.126s2.251,9.256,1.876,11.382-2.377,11.632-2.377,11.632l-2.126,15.26,14.634,1.126,0.657-14.634Z" transform="translate(-29.224 -11.447)"/><path class="cls-5" d="M200.727,192.784l7.7-12.53,2.153,6.825h0L206.4,201.931a21.062,21.062,0,0,0-.555,8.844l1.339,8.9-2.234,15.4s-3.593-14.272-5.342-22.4S200.727,192.784,200.727,192.784Z" transform="translate(-29.224 -11.447)"/><polygon class="cls-5" points="220.965 141.557 213.154 169.83 204.316 175.631 205.274 167.078 216.559 138.571 220.965 141.557"/><polygon class="cls-5" points="183.892 144.37 178.382 166.202 181.357 175.631 184.099 165.901 186.777 147.451 186.449 142.523 183.892 144.37"/><path class="cls-15" d="M251.87,115.2l-0.545-16.67a8.76,8.76,0,1,1,.445,16.776Z" transform="translate(-29.224 -11.447)"/><path class="cls-12" d="M246.519,88.954h0a33.958,33.958,0,0,1,4.431,14.736l0.239,3.754,3.356-20.238Z" transform="translate(-29.224 -11.447)"/><path class="cls-16" d="M240.821,69.33s1.049-3.665,5.938-6.223,8.07-2.689,10.107-1.147c2.3,1.74-2.616,9.474-8.71,11.013C242.786,74.331,239.88,72.772,240.821,69.33Z" transform="translate(-29.224 -11.447)"/><path class="cls-16" d="M207.58,47.631s2.911-3.461,9.112-4.068,9.457,0.639,10.719,3.174c1.422,2.861-7.43,8.991-14.322,7.984C207.014,53.834,204.891,50.9,207.58,47.631Z" transform="translate(-29.224 -11.447)"/><path class="cls-12" d="M189.233,60.959C191.985,55.23,199.99,50.3,199.99,50.3s-5,6.254,0,7.755,26.016,2,32.646-4.378,2-9.881,2-9.881a33.88,33.88,0,0,1,9.631,3,18.276,18.276,0,0,1,6.6,5.96,80.233,80.233,0,0,0-12.251,7.11,53.328,53.328,0,0,0-10.656,9.847s-11.332-3.452-21.363-2.539a36.607,36.607,0,0,0-16.786,5.828,13.914,13.914,0,0,1-2.334-6.807A23,23,0,0,1,189.233,60.959Z" transform="translate(-29.224 -11.447)"/><polygon class="cls-3" points="207.165 240.303 223.437 237.51 224.136 241.579 216.364 245.102 207.847 244.279 207.165 240.303"/><path class="cls-17" d="M210.745,141.668h0a10.523,10.523,0,0,1-10.523-10.523v-9a1.257,1.257,0,0,1,1.257-1.257h18.531a1.257,1.257,0,0,1,1.257,1.257v9A10.523,10.523,0,0,1,210.745,141.668Z" transform="translate(-29.224 -11.447)"/><path class="cls-7" d="M172.991,110.046H190a1.5,1.5,0,0,1,1.5,1.5V112.3a2.3,2.3,0,0,1-2.3,2.3H173.8a2.3,2.3,0,0,1-2.3-2.3v-0.756A1.5,1.5,0,0,1,172.991,110.046Z"/><path class="cls-18" d="M210.722,130.357h0a10,10,0,0,0-9.141,5.952,10.513,10.513,0,0,0,9.163,5.359h0a10.512,10.512,0,0,0,9.138-5.318A10,10,0,0,0,210.722,130.357Z" transform="translate(-29.224 -11.447)"/><path class="cls-15" d="M190.469,223.132l-5.442-4.073a29.353,29.353,0,0,1-7.094,2.2c-5.733,1.059-10.343-1.077-12.366-3.1s-14.7-35.189-14.7-35.189h0l13.849,44.388a12.265,12.265,0,0,0,10.834,8.606Q176.03,236,176.5,236a12.259,12.259,0,0,0,11.053-6.912Z" transform="translate(-29.224 -11.447)"/><path class="cls-5" d="M263.645,168.548a8.094,8.094,0,0,0-10,5.574L240.128,221.7l14.883,6.441c0.257-.658.493-1.327,0.689-2.016l13.519-47.576A8.094,8.094,0,0,0,263.645,168.548Z" transform="translate(-29.224 -11.447)"/><path class="cls-19" d="M167.989,226.414a13.56,13.56,0,0,0-2.44,2.947,12.226,12.226,0,0,0,7.233,6.076,5.119,5.119,0,0,0,.491-0.928c1.405-3.373.867-11.45,0.867-11.45A12.458,12.458,0,0,0,167.989,226.414Z" transform="translate(-29.224 -11.447)"/><path class="cls-9" d="M233.679,226.253l-56.368-3.623a8.094,8.094,0,0,0-1.038,16.155l56.368,3.623q0.714,0.046,1.423.046A22.627,22.627,0,0,0,255.01,228.14L240.128,221.7A6.317,6.317,0,0,1,233.679,226.253Z" transform="translate(-29.224 -11.447)"/><path class="cls-15" d="M234.064,242.453A22.627,22.627,0,0,0,255.01,228.14l-11.082-4.8a11.61,11.61,0,0,1,.055,5.57c-0.847,4.535-7.228,6.385-13.276,6.161-5.712-.212-55.023,1.409-59.666-10.053a8.086,8.086,0,0,0,5.231,13.764l56.368,3.623Q233.355,242.454,234.064,242.453Z" transform="translate(-29.224 -11.447)"/><path class="cls-7" d="M241.267,213.7l17.815,7.237a1.281,1.281,0,0,1,.724,1.639l-2.074,5.5a1.305,1.305,0,0,1-1.732.731l-17.985-7.655a1.28,1.28,0,0,1-.678-1.7l2.244-5.081A1.306,1.306,0,0,1,241.267,213.7Z" transform="translate(-29.224 -11.447)"/><path class="cls-20" d="M160.183,175.3h0a2.408,2.408,0,0,1-.983-3.261l3.994-7.445a2.408,2.408,0,0,1,3.261-.983h0a2.408,2.408,0,0,1,.983,3.261l-3.994,7.445A2.408,2.408,0,0,1,160.183,175.3Z" transform="translate(-29.224 -11.447)"/><path class="cls-20" d="M157.922,168.657s1.049-5.471.45-8.844-3.9-5.818-5.246-3.658,1.124,3.134,1.349,6.207-1.749,9.218-1.749,9.218Z" transform="translate(-29.224 -11.447)"/><path class="cls-21" d="M95.514,223.952h62.816a4.636,4.636,0,0,1,4.636,4.636v2.762a0,0,0,0,1,0,0H95.514a0,0,0,0,1,0,0v-7.4A0,0,0,0,1,95.514,223.952Z"/><path class="cls-21" d="M161.01,242.8H62.38L35.474,166.865h94.292a6.14,6.14,0,0,1,5.787,4.089Z" transform="translate(-29.224 -11.447)"/><path class="cls-8" d="M152.675,242.8H54.045l-24.527-69.22a5.032,5.032,0,0,1,4.743-6.713h87.17a6.14,6.14,0,0,1,5.787,4.089Z" transform="translate(-29.224 -11.447)"/><ellipse class="cls-22" cx="262.19" cy="175.621" rx="5.155" ry="6.098" transform="translate(-9.311 366.383) rotate(-73.664)"/><ellipse class="cls-23" cx="156.186" cy="179.322" rx="5.155" ry="7.046" transform="translate(-71.833 37.371) rotate(-15.661)"/><ellipse class="cls-23" cx="191.867" cy="227.128" rx="2.803" ry="14.715" transform="translate(-79.241 388.575) rotate(-85.367)"/><path class="cls-7" d="M117.678,175.621H67.758a2.021,2.021,0,0,1-2.021-2.021h0a2.021,2.021,0,0,1,2.021-2.021h49.921A2.021,2.021,0,0,1,119.7,173.6h0A2.021,2.021,0,0,1,117.678,175.621Z" transform="translate(-29.224 -11.447)"/><path class="cls-7" d="M58.77,175.621H39.5a2.021,2.021,0,0,1-2.021-2.021h0A2.021,2.021,0,0,1,39.5,171.58H58.77A2.021,2.021,0,0,1,60.79,173.6h0A2.021,2.021,0,0,1,58.77,175.621Z" transform="translate(-29.224 -11.447)"/><path class="cls-24" d="M147.123,227.128s-36.418,3.866-65.2-5.868A115.136,115.136,0,0,1,36.011,191.9l18.034,50.9h98.63Z" transform="translate(-29.224 -11.447)"/><path class="cls-25" d="M12.649,231.35H246.727a2.639,2.639,0,0,1,2.639,2.639v11.572a2.64,2.64,0,0,1-2.64,2.64H12.649a2.639,2.639,0,0,1-2.639-2.639V233.989A2.639,2.639,0,0,1,12.649,231.35Z"/><path class="cls-7" d="M160.866,150.575h0a1.686,1.686,0,0,1-1.734-1.637l-0.315-11.005a1.686,1.686,0,0,1,1.637-1.734h0a1.686,1.686,0,0,1,1.734,1.637l0.315,11.005A1.686,1.686,0,0,1,160.866,150.575Z" transform="translate(-29.224 -11.447)"/><path class="cls-7" d="M170.141,155.177h0a1.686,1.686,0,0,0,2.353.39l8.954-6.406a1.686,1.686,0,0,0,.39-2.353h0a1.686,1.686,0,0,0-2.353-.39l-8.954,6.406A1.686,1.686,0,0,0,170.141,155.177Z" transform="translate(-29.224 -11.447)"/><path class="cls-7" d="M166.761,150.551h0a1.686,1.686,0,0,1-.749-2.264l4.944-9.837a1.686,1.686,0,0,1,2.264-.749h0a1.686,1.686,0,0,1,.749,2.264l-4.944,9.837A1.686,1.686,0,0,1,166.761,150.551Z" transform="translate(-29.224 -11.447)"/><circle class="cls-1" cx="42.115" cy="89.258" r="30.111"/><circle class="cls-1" cx="90.474" cy="13.278" r="13.278"/><path class="cls-1" d="M131.949,65.074H79.123A5.777,5.777,0,0,1,73.345,59.3h0a5.777,5.777,0,0,1,5.777-5.777h52.826a5.777,5.777,0,0,1,5.777,5.777h0A5.777,5.777,0,0,1,131.949,65.074Z" transform="translate(-29.224 -11.447)"/></svg>